<svg xmlns="http://www.w3.org/2000/svg" xmlns:xlink="http://www.w3.org/1999/xlink" id="Layer_1" x="0" y="0" baseProfile="tiny" overflow="visible" version="1.2" viewBox="0 0 50 50" xml:space="preserve"><circle id="Ellipse_321" cx="24.5" cy="25.1" r="21.1" fill="#F6F6F6"/><g id="ios-cloudy-night-outline" transform="translate(9.064 11.237)"><path id="Path_988" fill="#CFCFCF" d="M15.1,4c-4.1,0-7.4,3.3-7.4,7.4c0,0,0,0,0,0c0,0.2,0,0.5,0,0.7c-2.7,0.3-4.7,2.8-4.4,5.6 c0.3,2.5,2.3,4.3,4.8,4.4h14.9c3.4-0.1,6.1-2.9,6.1-6.3c-0.1-3.3-2.7-6-6.1-6.1c-0.3,0-0.5,0-0.8,0C21.6,6.4,18.6,4,15.1,4L15.1,4z"/></g></svg>