<svg xmlns="http://www.w3.org/2000/svg" xmlns:xlink="http://www.w3.org/1999/xlink" id="Layer_1" x="0" y="0" baseProfile="tiny" overflow="visible" version="1.2" viewBox="0 0 45 45" xml:space="preserve"><g id="Group_206" transform="translate(-989 -288)"><g id="pending-timer" transform="translate(989 288)"><path fill="#FFF" d="M22.5,42.8c-11.2,0-20.3-9.1-20.3-20.3S11.3,2.2,22.5,2.2c11.2,0,20.3,9.1,20.3,20.3S33.7,42.8,22.5,42.8z M22.5,6.2c-9,0-16.3,7.3-16.3,16.3c0,9,7.3,16.3,16.3,16.3c9,0,16.3-7.3,16.3-16.3C38.8,13.5,31.5,6.2,22.5,6.2z" class="fiat-page-under-construction"/><polygon fill="#FFF" points="30.6 26.4 20.2 26.4 20.2 10.5 24.2 10.5 24.2 22.4 30.6 22.4" class="fiat-page-under-construction"/></g></g></svg>