<svg xmlns="http://www.w3.org/2000/svg" xmlns:xlink="http://www.w3.org/1999/xlink" id="Layer_1" x="0" y="0" baseProfile="tiny" overflow="visible" version="1.2" viewBox="0 0 120 120" xml:space="preserve"><g id="Group_5120" transform="translate(44.486 121.979) rotate(180)"><path id="Path_4753" fill="#FFF" d="M-5,105.8v8.3h-5.2v-8.3h-9.3v8.3h-5.2v-8.3h-5.8V95.6c0-7.6,5.5-14.1,13-15.4V74 c0-2-1.6-3.6-3.6-3.6h-2.5c-4.9,0-8.8-4-8.8-8.8v-0.6c0-4.9,4-8.8,8.8-8.8h2.5c2,0,3.6-1.6,3.6-3.6v-4.7h5.2v4.7 c0,4.9-4,8.8-8.8,8.8h-2.5c-2,0-3.6,1.6-3.6,3.6v0.6c0,2,1.6,3.6,3.6,3.6h2.5c4.9,0,8.8,4,8.8,8.8v6.3c7.5,1.3,13,7.8,13,15.4v10.2 H-5z M-4.5,95.6c0-5.7-4.7-10.4-10.4-10.4s-10.4,4.7-10.4,10.4c0,0,0,0,0,0v5.1h20.8V95.6z"/><rect id="Rectangle_1385" width="5.2" height="13.2" x="-17.7" y="10.3" fill="#FFF"/><rect id="Rectangle_1386" width="3.1" height="11.6" x="-5.6" y="38.9" fill="#FFF" transform="matrix(0.7071 -0.7071 0.7071 0.7071 -32.7784 10.23)"/><rect id="Rectangle_1387" width="8.6" height="3.1" x="-9.4" y="22.1" fill="#FFF" transform="matrix(0.7071 -0.7071 0.7071 0.7071 -18.255 3.3178)"/><rect id="Rectangle_1388" width="7.8" height="3.1" x="-5.1" y="32.1" fill="#FFF"/><rect id="Rectangle_1389" width="6.5" height="3.1" x="-27.6" y="41.3" fill="#FFF" transform="matrix(0.7071 -0.7071 0.7071 0.7071 -37.4474 -4.6349)"/><rect id="Rectangle_1390" width="3.1" height="6.5" x="-25.9" y="21.1" fill="#FFF" transform="matrix(0.7071 -0.7071 0.7071 0.7071 -24.3799 -10.0434)"/><rect id="Rectangle_1391" width="10.1" height="3.1" x="-35.2" y="32.1" fill="#FFF"/></g></svg>