<svg xmlns="http://www.w3.org/2000/svg" xmlns:xlink="http://www.w3.org/1999/xlink" id="Layer_1" x="0" y="0" baseProfile="tiny" version="1.2" viewBox="0 0 110 110" xml:space="preserve"><style type="text/css">.xht-docs{fill:#292b2c}</style><g><rect width="16.7" height="3.1" x="55.2" y="44.2" class="xht-docs"/><rect width="16.7" height="3.1" x="55.2" y="37.1" class="xht-docs"/><rect width="34.6" height="3.4" x="37.8" y="74.1" class="xht-docs"/><rect width="34.6" height="2.8" x="37.5" y="58.9" class="xht-docs"/><path d="M55,5.1c-28.2,0-51,22.8-51,51s22.8,51,51,51s51-22.8,51-51S83.2,5.1,55,5.1z M47,25.8v12.8c0,2.1-1.7,4-4,4H30.3L47,25.8z M75.3,86.4h-40c-2.5,0-4.8-1.9-5-4.6V44.4h13.2c4,0,5.9-2,5.9-6V25.9h25.9c0.1,0,0.1,0,0.2,0c2.3,0.1,4.2,2.1,4.1,4.5v51.4 c0,0.1,0,0.1,0,0.2C79.7,84.4,77.7,86.4,75.3,86.4z" class="xht-docs"/><rect width="34.6" height="3.1" x="37.8" y="66.6" class="xht-docs"/><rect width="34.6" height="2.8" x="37.8" y="51.6" class="xht-docs"/></g></svg>